<?xml version="1.0" encoding="utf-8"?>
<!-- Generator: Adobe Illustrator 22.1.0, SVG Export Plug-In . SVG Version: 6.00 Build 0)  -->
<svg version="1.1" id="图层_1" xmlns="http://www.w3.org/2000/svg" xmlns:xlink="http://www.w3.org/1999/xlink" x="0px" y="0px"
	 viewBox="0 0 1920 1080" style="enable-background:new 0 0 1920 1080;" xml:space="preserve">
<style type="text/css">
	.st0{fill:none;stroke:#009FE8;stroke-width:2;stroke-miterlimit:10;}
	.st1{fill:none;}
	.st2{fill:#009FE8;}
	.st3{font-family:'CenturyGothic';}
	.st4{font-size:28.6045px;}
</style>
<path class="st0" d="M720.9,430.8c-6.4,2-18.6,13.7-18.6,13.7c-3.2-3.3-15.5-2.9-15.5-2.9l1.8,1.2c-53.2,19.4-54.1,77.2-53.8,88.3
	c0,1.1,1.2,2.5,2.3,2.6h11.7c2.6-0.5,1.8-2.6,1.8-2.6c-3.3-3.2-1.1-6.7-1.1-6.7c0.2-1.1,5.1-5.5,5.1-5.5c3.9-2.2,4.3,0.9,4.3,0.9
	c1,5.9,3.7,10.6,5.1,12.7c0.5,0.8,1.4,1.2,2.3,1.2h9.2c3.2-1.1,2.6-3.1,2.6-3.1c-5.1-8.3-4.6-14.1-4.6-14.1
	c7.3,1.1,16.1-3.2,16.1-3.2c-2.2,11-0.2,16.6,1.2,18.9c0.5,0.9,1.5,1.4,2.5,1.4l9,0c2.6-0.2,1-3.4,1-3.4c-2.9-8.8,2.3-13.6,2.3-13.6
	c0.5,5.7,3.4,11.7,4.9,14.5c0.6,1.1,1.7,1.7,2.9,1.7h9.3c2.6-1.6,0.7-3.2,0.7-3.2c-8.7-4.9-3.9-32.2-3.9-32.2
	c1.5-1.1,4.5-5.9,6.1-8.5c0.5-0.7,1.5-0.9,2.1-0.3c0.9,0.8,2,1.6,2,1.6c2.8-0.1,6.6,2.7,6.6,2.7c4.8,3.3,5,9.8,5,9.8
	c-0.2,17.4-9.7,22-9.7,22c-0.7-0.1-1.3-0.2-1.8-0.3c-0.1-0.2-0.2-0.4-0.3-0.6c-2.3-4.7-2.7,0.6-2.7,0.6s0,0,0,0
	c-2.8,0.5-2.3,2.5-2.3,2.5c4.3,7.8,13.1,1,13.1,1c10.2-6.2,12.4-30.7,12.4-30.7c43.4,8.1,36.6-22.8,36.6-22.8
	c-3.4,29.5-37.1,18.6-37.1,18.6l0.5-1c41.6,6.6,31.2-22.5,31.2-22.5c-0.2,31.3-32.2,17.7-32.2,17.7v-1.8l-0.5-0.8c-0.5-0.6,0-4,0-4
	h-0.7l0.1-2.3l-0.1-3.5c0.2-2.4-0.9-2.6-0.9-2.6v-6l-0.8-0.3l-0.4-2.6l-0.2-2.6c1.8-2.1,1.3-8.2,1.3-8.2
	C744.3,446.9,727.2,428.8,720.9,430.8"/>
<rect x="786.5" y="496.9" class="st1" width="205.5" height="36.6"/>
<text transform="matrix(1 0 0 1 786.5015 520.8726)" class="st2 st3 st4">New  Imagery</text>
</svg>
